HIERARCHY
ROOT Hips
{
  OFFSET 0.000000 0.000000 0.000000
  CHANNELS 6 Xposition Yposition Zposition Xrotation Yrotation Zrotation
  JOINT Spine
  {
    OFFSET -1.497742 -24.188613 -2.980860
    CHANNELS 3 Xrotation Yrotation Zrotation
    JOINT Chest
    {
      OFFSET -1.497742 -24.188613 -2.980860
      CHANNELS 3 Xrotation Yrotation Zrotation
      JOINT Neck
      {
        OFFSET -0.839846 -18.403183 -5.817632
        CHANNELS 3 Xrotation Yrotation Zrotation
        JOINT Head
        {
          OFFSET 2.556783 2.353650 -12.249610
          CHANNELS 3 Xrotation Yrotation Zrotation
          End Site
          {
            OFFSET 0.0 5.0 2.0
          }
        }
      }
      JOINT LeftShoulder
      {
        OFFSET 17.157691 -0.499757 0.172752
        CHANNELS 3 Xrotation Yrotation Zrotation
        JOINT LeftArm
        {
          OFFSET 3.804724 23.970960 -0.232163
          CHANNELS 3 Xrotation Yrotation Zrotation
          JOINT LeftForeArm
          {
            OFFSET 4.234907 21.854164 -12.221253
            CHANNELS 3 Xrotation Yrotation Zrotation
            JOINT LeftHand
            {
              OFFSET -0.379233 6.572683 -3.575272
              CHANNELS 3 Xrotation Yrotation Zrotation
              End Site
              {
                OFFSET -3.0 0.0 2.0
              }
            }
          }
        }
      }
      JOINT RightShoulder
      {
        OFFSET -17.157691 0.499757 -0.172752
        CHANNELS 3 Xrotation Yrotation Zrotation
        JOINT RightArm
        {
          OFFSET -6.297551 24.269754 0.950965
          CHANNELS 3 Xrotation Yrotation Zrotation
          JOINT RightForeArm
          {
            OFFSET -1.172763 21.613634 -12.012026
            CHANNELS 3 Xrotation Yrotation Zrotation
            JOINT RightHand
            {
              OFFSET 1.550200 5.849362 -3.268212
              CHANNELS 3 Xrotation Yrotation Zrotation
              End Site
              {
                OFFSET 3.0 0.0 2.0
              }
            }
          }
        }
      }
    }
  }
  JOINT LeftUpLeg
  {
    OFFSET 11.413724 -0.166599 -0.452059
    CHANNELS 3 Xrotation Yrotation Zrotation
    JOINT LeftLeg
    {
      OFFSET -0.942045 42.054071 2.000000
      CHANNELS 3 Xrotation Yrotation Zrotation
      JOINT LeftFoot
      {
        OFFSET 5.651273 35.161090 11.732612
        CHANNELS 3 Xrotation Yrotation Zrotation
        JOINT LeftToeBase
        {
          OFFSET 4.975574 10.217273 -12.002525
          CHANNELS 3 Xrotation Yrotation Zrotation
          End Site
          {
            OFFSET 0.0 -1.0 3.0
          }
        }
      }
    }
  }
  JOINT RightUpLeg
  {
    OFFSET -11.413724 0.166599 0.452059
    CHANNELS 3 Xrotation Yrotation Zrotation
    JOINT RightLeg
    {
      OFFSET 3.989764 39.839749 2.927330
      CHANNELS 3 Xrotation Yrotation Zrotation
      JOINT RightFoot
      {
        OFFSET 5.927880 35.533834 13.164785
        CHANNELS 3 Xrotation Yrotation Zrotation
        JOINT RightToeBase
        {
          OFFSET -4.994884 9.908944 -11.189935
          CHANNELS 3 Xrotation Yrotation Zrotation
          End Site
          {
            OFFSET 0.0 -1.0 3.0
          }
        }
      }
    }
  }
}
MOTION
Frames: 8
Frame Time: 0.066667
0.000000 0.000000 0.000000 0.000000 0.000000 0.000000 0.000000 0.000000 0.000000 0.000000 0.000000 0.000000 0.000000 0.000000 0.000000 0.000000 0.000000 0.000000 0.000000 0.000000 0.000000 0.000000 0.000000 0.000000 0.000000 0.000000 0.000000 0.000000 0.000000 0.000000 0.000000 0.000000 0.000000 0.000000 0.000000 0.000000 0.000000 0.000000 0.000000 0.000000 0.000000 0.000000 -0.738047 -0.016532 0.000106 0.000000 0.000000 0.000000 93.479167 -25.923420 -27.487501 0.000000 0.000000 0.000000 0.000000 0.000000 0.000000 0.000000 0.000000 0.000000 90.537025 26.750670 26.993407 0.000000 0.000000 0.000000
0.000000 0.000000 0.000000 -0.010198 0.289442 -0.342353 0.018636 0.001277 -0.019703 0.011546 0.387255 -0.039760 -0.514340 1.122470 0.102986 0.000000 0.000000 0.000000 -0.417264 0.066612 0.028368 -1.396380 -0.045393 -0.552547 -0.726478 -0.803324 -1.377534 0.000000 0.000000 0.000000 -1.088009 -0.286232 0.138188 -4.601181 -0.277584 -0.036223 -1.890927 -0.374490 -1.518485 0.000000 0.000000 0.000000 -1.422680 -0.015417 -0.467980 -0.339758 -0.079201 0.404702 93.898526 -25.904811 -30.091345 0.000000 0.000000 0.000000 -1.444331 0.147724 -0.052845 -0.114733 0.958769 -2.553328 89.821713 26.768290 29.670335 0.000000 0.000000 0.000000
0.000000 0.000000 0.000000 -0.004153 0.087022 -0.134367 -0.553679 -0.086966 1.024050 0.010575 0.481386 0.587739 -0.203477 1.270973 0.198960 0.000000 0.000000 0.000000 -0.285353 0.059148 1.130303 -0.446022 -0.501262 -1.043264 -0.299701 -0.951707 -1.705525 0.000000 0.000000 0.000000 -5.983529 -1.487452 3.855680 -12.602451 -1.857766 -1.584945 -3.700782 -3.438313 -7.464167 0.000000 0.000000 0.000000 -1.527215 -0.071803 1.099924 -1.016015 0.352130 -0.585432 94.769871 -25.781014 -38.421267 0.000000 0.000000 0.000000 -1.802864 0.247567 -1.169672 -0.606767 1.340454 -3.418002 92.825811 26.704585 29.092467 0.000000 0.000000 0.000000
0.000000 0.000000 0.000000 0.010471 -0.011181 0.269137 -0.921755 -0.155533 1.845551 0.018557 0.771625 1.177158 0.226206 0.931334 0.227704 0.000000 0.000000 0.000000 -0.091870 0.040649 2.471996 0.424551 -0.376071 -0.530891 0.154906 -0.567433 -1.062413 0.000000 0.000000 0.000000 -6.785611 -1.632605 5.302869 -10.021704 -2.279631 -2.518772 -2.251449 -3.825202 -7.681431 0.000000 0.000000 0.000000 -1.637631 -0.121974 2.567723 -1.199535 -0.088707 0.871576 92.820327 -26.025896 -44.074189 0.000000 0.000000 0.000000 -1.911334 0.283474 -1.633750 -0.855079 1.251961 -3.080152 93.687261 26.639623 31.027793 0.000000 0.000000 0.000000
0.000000 0.000000 0.000000 0.015468 -0.294572 0.533667 0.892939 -0.434990 2.888908 -0.014396 0.028730 1.550891 1.640551 0.767157 0.501509 0.000000 0.000000 0.000000 1.016340 -0.158990 3.887192 2.267959 -0.107991 0.612626 1.254849 -0.073246 -0.274063 0.000000 0.000000 0.000000 -3.807280 -1.008188 5.794798 -5.286720 -2.163366 -3.019505 1.415662 -3.558837 -5.958403 0.000000 0.000000 0.000000 -0.560970 -0.135869 2.892118 0.647782 -0.378124 0.804119 90.935086 -26.326422 -44.450984 0.000000 0.000000 0.000000 -0.370677 0.147666 -1.577041 1.033554 0.934153 -2.917498 90.765216 26.741151 31.858775 0.000000 0.000000 0.000000
0.000000 0.000000 0.000000 0.023293 -0.782618 1.058859 3.977673 -0.791327 3.418197 -0.087929 -1.258742 2.432433 3.168676 1.875238 1.075771 0.000000 0.000000 0.000000 4.472918 -0.865685 5.090868 4.363229 -0.080406 1.465977 1.525081 0.547408 0.873659 0.000000 0.000000 0.000000 2.599142 0.311424 5.802518 3.239653 -1.821006 -3.832453 5.383707 -3.527884 -4.354679 0.000000 0.000000 0.000000 0.633467 -0.147234 3.041016 2.089598 -1.181797 2.371875 91.927766 -26.092965 -38.307825 0.000000 0.000000 0.000000 1.456468 -0.089454 -0.654886 2.049726 0.417033 -1.950077 89.859103 26.758925 28.072666 0.000000 0.000000 0.000000
0.000000 0.000000 0.000000 0.078079 -0.374613 2.297986 5.108584 -1.065295 4.409053 -0.114873 -1.189453 3.916756 3.888800 3.779543 1.666100 0.000000 0.000000 0.000000 6.319088 -1.311515 6.506074 4.706533 0.341871 2.433165 2.365592 0.832843 1.349546 0.000000 0.000000 0.000000 5.200010 1.043707 3.544946 8.198945 -0.489756 -1.971439 4.698993 -1.850147 -1.259535 0.000000 0.000000 0.000000 -0.565640 -0.147008 3.153989 4.269903 -1.792790 2.901938 91.366392 -25.953314 -26.245186 0.000000 0.000000 0.000000 4.622872 -0.662101 1.721016 9.554001 -0.859114 -1.680084 83.764592 26.472015 21.246242 0.000000 0.000000 0.000000
0.000000 0.000000 0.000000 0.087138 -1.120420 3.466087 5.595697 -1.250138 5.181673 -0.210552 -2.293404 4.768059 4.293048 2.735587 1.528050 0.000000 0.000000 0.000000 7.739035 -1.622703 6.531759 4.469752 0.329204 2.309778 3.502946 0.564927 0.725295 0.000000 0.000000 0.000000 6.566374 1.602133 1.068923 8.623141 0.852960 0.874916 4.427935 -0.545334 1.189144 0.000000 0.000000 0.000000 -2.388203 -0.161283 4.043597 5.602632 -2.790562 4.768805 87.162681 -26.071157 -27.420735 0.000000 0.000000 0.000000 6.428975 -1.258334 4.653133 13.981105 -1.278802 -2.269078 80.575934 25.800930 14.401334 0.000000 0.000000 0.000000
